<?xml version="1.0" encoding="UTF-8"?>
<svg id="Layer_2" data-name="Layer 2" xmlns="http://www.w3.org/2000/svg" width="513.3" height="219.17" viewBox="0 0 513.3 219.17">
  <g id="plinth">
    <g>
      <polygon points="29.71 62.09 19.79 73.36 2.03 130.26 2.21 151.94 7.61 163.54 20.78 174.96 45.84 187.44 97.84 202.44 143.94 210.28 216.03 216.43 265.4 217.26 315.38 215.49 353.47 212.23 407.73 204.09 452.61 192.82 479.51 182.37 495.22 173.34 507.16 162 510.86 154.49 511.27 130.26 490.81 67.16 29.71 62.09" fill="#514f56"/>
      <path d="M490.32,67.16c0,32.54-104.62,58.92-233.68,58.92S22.97,99.7,22.97,67.16c0-41.18,104.62-58.92,233.68-58.92s233.68,26.38,233.68,58.92Z" fill="#6b6b6b"/>
      <g>
        <path d="M490.65,64.93h0c0,9.73-8.33,18.94-23.2,27.14-6.93,3.83-15.28,7.43-24.87,10.78-42.76,14.91-110.14,24.52-185.93,24.52s-143.16-9.61-185.93-24.52c-9.6-3.34-17.95-6.96-24.88-10.78-14.86-8.21-23.19-17.41-23.19-27.14,0-.49.02-.96.07-1.44l2.36-7.58C41.48,25.7,138.91,2.5,256.65,2.5c129.23,0,228.87,36.78,234.01,62.43Z" fill="none" stroke="#444443" stroke-miterlimit="10" stroke-width="5"/>
        <line x1="25.08" y1="55.91" x2="22.72" y2="63.49" fill="none" stroke="#444443" stroke-miterlimit="10" stroke-width="5"/>
        <path d="M22.72,63.49c-.04.48-.07.96-.07,1.44,0,9.72,8.33,18.93,23.19,27.14,6.93,3.82,15.28,7.43,24.88,10.78,42.76,14.91,110.13,24.52,185.93,24.52s143.17-9.61,185.93-24.52c9.59-3.34,17.94-6.95,24.87-10.78,14.87-8.21,23.2-17.41,23.2-27.14" fill="none" stroke="#444443" stroke-miterlimit="10" stroke-width="5"/>
        <path d="M512.6,128.74l-20.48-64.37-3.56,1.13,20.64,64.9c-.15,2.86-.7,6.23-1.91,8.53-14.29,27.17-120.73,57.44-250.64,57.44-61.67,0-121.13-5.96-167.43-16.78-45.46-10.63-75.02-25.07-83.21-40.66-1.24-2.36-1.98-5.83-2.2-8.6l20.69-66.27-3.57-1.11L.38,128.77l-.38,20.56c0,19.08,26.99,36.8,76.01,49.87,48.27,12.88,112.43,19.97,180.64,19.97s132.36-7.09,180.64-19.97c49.02-13.08,76.01-30.79,76.01-49.9l-.7-20.55ZM436.32,195.58c-47.97,12.8-111.78,19.85-179.67,19.85s-131.7-7.05-179.67-19.85C30.43,183.16,3.74,166.3,3.74,149.32v-6.85c9.91,15.85,39.79,30.26,84.63,40.75,46.56,10.89,106.33,16.88,168.28,16.88s119.33-6.53,168.29-18.38c44.63-10.81,75.14-24.97,84.51-39.13l.1,6.73c0,16.98-26.69,33.84-73.23,46.26Z" fill="#444443"/>
      </g>
    </g>
  </g>
</svg>