<?xml version="1.0" encoding="UTF-8"?>
<svg id="Layer_2" data-name="Layer 2" xmlns="http://www.w3.org/2000/svg" width="368.87" height="223.96" viewBox="0 0 368.87 223.96">
  <g id="rock">
    <g>
      <g>
        <path d="M87.29,13.26l-17.61,23.07-6.27,5.63-22.37,18.81-19.01,69.06s-13.52,7.6-17.74,15.84l32.31,30.41,34.42,5.34,5.49,2.91,32.76,19.86,25.58,13.51,8.81,2.31,37.11-.45,29.04-6.22,10.53-4.31,27.24.45,11.41.19,21.41-8.87,22.94-9.5,11.78-.17,42.11-11.94,3.14-1.2-6.34-20.91,12.04-10.77-4.7-21.75-6.25-15.75-8.89-13.03-27.2-15.39-13.15-37.99-17.58-10.14-16.64-13.31-22.39-8.22-25.48-5.41-29.01-2.66-25.78-.06-25.38,1.65-28.17,3.56-28.17,5.43Z" fill="#6b6b6b"/>
        <polygon points="76.72 69.68 63.95 128.74 40.8 148.82 36.61 176.09 73.35 182.11 82.98 189.33 106.76 163.53 91.94 140.29 87.72 126.99 78.22 68.58 76.72 69.68" fill="#514f56"/>
        <polygon points="122.67 212.33 115.66 162.26 106.76 163.53 82.98 189.33 122.67 212.33" fill="#514f56"/>
        <polygon points="258.99 209.67 263.19 171.74 252.63 160.88 258.52 125.77 277.16 146.84 282.33 173.83 303.98 191.29 258.99 209.67" fill="#514f56"/>
        <path d="M307.63,44.54l-13.94,14.15s.53-.8.53-.8l-8.24,19.85-.35.85-.7.35-35.66,17.94c-.23-.1,33.18-22.19,33.15-22.26,0,0-1.05,1.2-1.05,1.2l8.24-19.85.19-.45s.34-.35.34-.35l13.94-14.15s3.56,3.51,3.56,3.51h0Z" fill="#848484"/>
        <path d="M320.07,78.44l9.84,4.49c2.78,1.38,7.32,3.13,10.01,4.78,18.46,11.34,25.9,38.4,28.79,58.63,0,0,.16,1.33.16,1.33,0,0-1.03.93-1.03.93,0,0-12.02,10.79-12.02,10.79l.78-2.77s6.37,20.9,6.37,20.9.73,2.41.73,2.41c-5.42,2.13-10.86,4.14-16.35,5.98-9.47,3.16-18.98,6.04-28.86,7.83-5.24.86-10.26,1.6-15.72.64,0,0,1.65-.16,1.65-.16l-44.32,18.45s-.55.23-.55.23c0,0-.61,0-.61,0,0,0-38.65-.61-38.65-.61,0,0,1.46-.37,1.46-.37-3.2,1.68-6.4,2.9-9.77,4.1-22.93,7.79-47.74,9.28-71.67,6.93-12.8-3.4-24.13-11.23-35.42-17.46-11.75-6.07-23.32-12.65-33.51-21.17,0,0,1.51.71,1.51.71,0,0-36.75-5.7-36.75-5.7,0,0-.91-.14-.91-.14l-.67-.63S2.26,148.16,2.26,148.16l-2.26-2.13c6.55-6.36,13.01-12.56,20.22-18.23,0,0-1.05,1.56-1.05,1.56,0,0,19.08-69.04,19.08-69.04,0,0,.24-.87.24-.87,0,0,.69-.58.69-.58,0,0,27.9-23.41,27.9-23.41,0,0-.43.45-.43.45,0,0,18.4-24.05,18.4-24.05,0,0,.61-.8.61-.8,0,0,.95-.22.95-.22,15.41-3.59,30.85-6.05,46.51-7.92,46.39-4.93,97.18-5.7,140.31,14.45,10.08,8.95,21.08,17.47,33.44,23,0,0,1.05.46,1.05.46,0,0,.36,1.06.36,1.06,8.39,24.7,18.2,51.57,25.27,76.53,1.73,5.89,4.99,16.74,6.73,22.54,0,0,.48,1.61.48,1.61,0,0,.24.8.24.8.08.27.16.54.12.85,0,0-.97.33-.97.33-.22-.22-.32-.48-.42-.74-2.55-6.71-6.65-17.52-9.27-24.33-6.74-16.78-20.83-58.3-27.01-75.91,0,0,1.42,1.51,1.42,1.51-13.04-5.78-24.36-14.49-34.99-23.89-24.25-11-60.08-16.38-89.71-15.75-30.94.26-62.06,3.98-92.21,10.88,0,0,1.56-1.02,1.56-1.02,0,0-18.35,24.1-18.35,24.1l-.19.25s-.24.2-.24.2c0,0-27.85,23.47-27.85,23.47,0,0,.93-1.45.93-1.45l-18.93,69.08s-.26.95-.26.95c-3.32,2.54-6.51,5.31-9.68,8.17-2.9,2.63-5.79,5.33-8.59,8.05,0,0-.04-4.28-.04-4.28,0,0,32.31,30.42,32.31,30.42l-1.57-.77s36.75,5.71,36.75,5.71c0,0,.84.13.84.13,9.92,8.44,21.48,14.99,33.03,20.96,11.43,6.26,21.73,13.62,34.3,17.02,21.59,1.86,50.39.67,72.67-8.55,1.69-.69,3.45-1.49,5-2.34,0,0,.76.01.76.01,0,0,38.65.66,38.65.66,0,0-1.16.22-1.16.22l44.38-18.3s.79-.33.79-.33c2.36.54,4.78.6,7.45.43,11.97-1.02,23.67-4.72,35.1-8.41,4.62-1.54,9.25-3.19,13.76-4.92,0,0-1.6,3.31-1.6,3.31l-6.3-20.92-.49-1.64s1.27-1.13,1.27-1.13l12.06-10.75-.87,2.26c-.41-3.4-1.04-6.95-1.77-10.39-3.99-17.51-11.1-39.37-28.94-46.74-3-1.32-11.61-5.39-14.75-6.8,0,0,2.09-4.54,2.09-4.54h0Z" fill="#444443"/>
        <polygon points="305.88 110.52 355.78 155.61 352.29 159.19 305.88 110.52 305.88 110.52" fill="#444443"/>
        <path d="M70.97,39.08c-4.35,7.97-3.65,15.7,5.12,20.41,3.76,1.98,9.01,4.7,12.54,6.99,3.98,2.73,7.85,5.21,12.25,7.29,0,0-.14.43-.14.43-2.39-.43-4.73-.95-7.1-1.75-5.62-2.28-10.89-4.79-16.5-6.98-11.8-4.08-18.02-13.72-12.37-25.74.62-1.28,1.22-2.32,2.09-3.51,0,0,4.1,2.86,4.1,2.86h0Z" fill="#444443"/>
        <polygon points="79.83 62.54 85.04 113.59 74.89 63.29 79.83 62.54 79.83 62.54" fill="#444443"/>
        <polygon points="70.54 104.81 75.13 64.09 80.06 64.93 70.89 104.87 70.54 104.81 70.54 104.81" fill="#444443"/>
        <path d="M87.35,122.93l6.43,14.53-.32-.73c5.94,8.86,11.43,18.03,16.74,27.28-6.65,6.5-13.33,12.97-20.39,19.03-2.18,1.89-4.39,3.74-6.68,5.52l-.26-.25c6.71-9.38,14.25-18.09,21.9-26.69,0,0-.34,3.35-.34,3.35-5.51-8.26-10.91-16.59-15.87-25.19,0,0-.29-.51-.29-.51l-.03-.22-2.32-15.72s1.44-.42,1.44-.42h0Z" fill="#444443"/>
        <path d="M249.28,96.86l-1.28,14.91-.55-2.28,30.1,37.01s-.79.7-.79.7l-33.06-34.4-1.07-1.11.52-1.17c.06.01,6.01-13.81,6.13-13.66h0Z" fill="#444443"/>
        <path d="M258.52,125.77s-5.28,34-6.04,35.6c-.01.03-.01.07.01.09l10.7,10.28s.02.04.02.06l-4.22,37.87" fill="none" stroke="#444443" stroke-miterlimit="10" stroke-width="5"/>
        <polygon points="301.73 193.52 280.83 173.68 281.93 172.38 304.96 189.71 301.73 193.52 301.73 193.52" fill="#444443"/>
        <polyline points="244.63 111.15 194.43 120.89 144.81 108.9" fill="none" stroke="#848484" stroke-miterlimit="10" stroke-width="5"/>
        <polygon points="201.31 169.26 189.71 148.81 189.42 148.29 189.49 147.53 192.04 119.6 197.02 120.05 194.46 147.98 194.24 146.71 202.36 168.77 201.31 169.26 201.31 169.26" fill="#848484"/>
        <path d="M137.42,97.83c1.18.95,11.02,8.82,11.88,9.52,0,0-1.56,1.93-1.56,1.93l-20.84,25.83.43-.8-9.29,28.72s.09-1.15.09-1.15l7.71,50.46-4.94.75s-7.71-50.46-7.71-50.46c0,0-.09-.58-.09-.58l.18-.56,9.29-28.72s.14-.44.14-.44l.29-.36,20.84-25.83.13,3.28s-7.54-10.67-7.54-10.67l.99-.93h0Z" fill="#444443"/>
        <path d="M100.93,73.85c6.53,3.44,12.41,7.91,18.06,12.61,3.91,1.63,13.44,7.23,18.46,11.36,0,0-.74,1.43-.74,1.43-3.62-.99-7.08-2.36-10.51-3.84-3.45-1.55-7.26-3.25-10.49-5.18-4.09-3.68-8-7.54-11.58-11.72-1.18-1.42-2.37-2.84-3.44-4.39l.23-.27h0Z" fill="#848484"/>
        <polygon points="34.14 176 38.57 149.18 38.65 150.32 34.73 132.8 36.79 132.16 43.43 148.85 43.62 149.32 43.51 150 39.07 176.82 34.14 176 34.14 176" fill="#444443"/>
        <polygon points="64.88 128.69 42.72 151.44 39.36 147.74 64.09 127.82 64.88 128.69 64.88 128.69" fill="#444443"/>
      </g>
      <path d="M156.82,11.04l-38.02,5.07s18.59,1.69,18.59,14.36l19.43,29.99,27.46,10.56,26.1-1.43,34.31-14.62-11.83-12.25s-9.71-5.91-9.71-15.21-66.32-16.47-66.32-16.47Z" fill="#514f56"/>
      <path d="M109.8,71.69l59.28-9.47,1.87-.3c.39.33,16.19,13.59,17.08,14.34,0,0-6.45.02-6.45.02,1.01-.85,15.63-13.27,16.07-13.63,0,0,2.03.45,2.03.45l58.4,12.98-59.74-3.07,3.91-1.14-14.19,12.04-3.22,2.73-3.23-2.71-15.35-12.88,3.6,1.16c-.03-.31-60.61.42-60.05-.5h0Z" fill="#444443"/>
    </g>
  </g>
</svg>